#!OML:ASF F:\VICON\USERDATA\INSTALL\rory3\rory3.ASF
:FULLY-SPECIFIED
:DEGREES
113
root -0.115209 17.9818 -0.762379 2.75907 -10.4899 1.43243
lowerback -0.911083 -1.8038 -4.6543
upperback -0.982531 -2.37978 2.30969
thorax -0.212989 -1.16533 4.97512
lowerneck -22.0773 0.361916 -9.10595
upperneck 23.6589 2.59674 3.96965
head 11.1637 0.850543 3.38311
rclavicle -1.78658e-014 -8.74653e-015
rhumerus -32.8116 -1.63031 -80.9779
rradius 31.6457
rwrist 19.6514
rhand -17.9793 8.46691
rfingers 7.12502
rthumb 8.29036 -21.3504
lclavicle -1.78658e-014 -8.74653e-015
lhumerus 24.4596 -18.2929 58.7733
lradius 105.528
lwrist -6.82545
lhand -38.7688 28.5429
lfingers 7.12502
lthumb -11.7807 58.1916
rfemur -8.66614 9.19087 15.0292
rtibia 25.6516
rfoot -16.7012 -3.7057
rtoes 4.62784
lfemur 0.728213 -2.27374 -21.8322
ltibia 11.4553
lfoot -10.4256 6.55609
ltoes -12.7677
114
root -0.1157 17.982 -0.762315 2.76943 -10.514 1.47041
lowerback -0.850391 -1.79306 -4.71918
upperback -1.01862 -2.36797 2.32648
thorax -0.282455 -1.15629 5.03252
lowerneck -22.2036 0.363486 -9.15293
upperneck 23.4428 2.59641 4.08252
head 11.1032 0.868762 3.42823
rclavicle 3.0501e-015 -4.77083e-015
rhumerus -32.8347 -1.46592 -80.9889
rradius 31.6744
rwrist 19.5098
rhand -18.0128 8.38103
rfingers 7.12502
rthumb 8.25793 -21.4376
lclavicle 3.0501e-015 -4.77083e-015
lhumerus 24.9592 -17.8995 58.4755
lradius 105.603
lwrist -7.10072
lhand -38.95 28.8812
lfingers 7.12502
lthumb -11.9554 58.5198
rfemur -8.71252 9.25818 14.9845
rtibia 25.6973
rfoot -16.7531 -3.6932
rtoes 4.72176
lfemur 0.771364 -2.27403 -21.8662
ltibia 11.372
lfoot -10.384 6.5704
ltoes -12.6844
115
root -0.115754 17.9814 -0.759723 2.75678 -10.5443 1.58024
lowerback -0.814938 -1.77852 -4.82175
upperback -1.04903 -2.34994 2.29778
thorax -0.333167 -1.14458 5.06296
lowerneck -22.3123 0.380233 -9.2285
upperneck 23.1818 2.59839 4.2951
head 11.0197 0.900116 3.51337
rclavicle 9.72181e-015 -1.66979e-014
rhumerus -32.8737 -1.35517 -81.0133
rradius 31.7119
rwrist 19.4196
rhand -17.9512 8.31262
rfingers 7.12502
rthumb 8.31741 -21.5036
lclavicle 9.72181e-015 -1.66979e-014
lhumerus 25.5564 -17.5034 58.085
lradius 105.718
lwrist -7.08466
lhand -39.2363 28.9896
lfingers 7.12502
lthumb -12.2315 58.612
rfemur -8.73542 9.25991 14.8568
rtibia 25.7233
rfoot -16.743 -3.67225
rtoes 4.57416
lfemur 0.76543 -2.26927 -21.9958
ltibia 11.3471
lfoot -10.3677 6.61792
ltoes -12.6325
116
root -0.115832 17.9806 -0.757631 2.74722 -10.5457 1.606
lowerback -0.773302 -1.78061 -4.83663
upperback -1.0368 -2.35437 2.29912
thorax -0.342736 -1.14672 5.07391
lowerneck -22.4865 0.37072 -9.41894
upperneck 22.8567 2.59194 4.58064
head 10.9227 0.929179 3.64198
rclavicle 3.66882e-014 6.36111e-015
rhumerus -32.8186 -1.24608 -81.0403
rradius 31.7431
rwrist 19.4027
rhand -17.9347 8.19959
rfingers 7.12502
rthumb 8.33337 -21.616
lclavicle 3.66882e-014 6.36111e-015
lhumerus 26.249 -16.9958 57.6565
lradius 105.753
lwrist -7.05438
lhand -39.6104 28.9244
lfingers 7.12502
lthumb -12.5922 58.5249
rfemur -8.72422 9.26584 14.8292
rtibia 25.7346
rfoot -16.7371 -3.65805
rtoes 4.61817
lfemur 0.765478 -2.25519 -22.0311
ltibia 11.3258
lfoot -10.3589 6.60954
ltoes -12.637
117
root -0.114309 17.9811 -0.755544 2.77352 -10.532 1.54959
lowerback -0.762827 -1.81118 -4.77718
upperback -0.984945 -2.39537 2.35808
thorax -0.28991 -1.17028 5.10028
lowerneck -22.7223 0.343464 -9.66086
upperneck 22.429 2.60072 4.81581
head 10.7992 0.957739 3.76012
rclavicle -3.83903e-014 1.43125e-014
rhumerus -32.6303 -1.06919 -81.0365
rradius 31.7106
rwrist 19.3942
rhand -17.9954 8.2061
rfingers 7.12502
rthumb 8.27473 -21.6118
lclavicle -3.83903e-014 1.43125e-014
lhumerus 26.9265 -16.3367 57.2683
lradius 105.746
lwrist -7.07123
lhand -39.8048 28.9109
lfingers 7.12502
lthumb -12.7796 58.4998
rfemur -8.72526 9.25143 14.8857
rtibia 25.7388
rfoot -16.7142 -3.65023
rtoes 4.49565
lfemur 0.781269 -2.31744 -21.9713
ltibia 11.3149
lfoot -10.3529 6.62161
ltoes -12.4539
118
root -0.113168 17.9825 -0.754393 2.80969 -10.5156 1.49368
lowerback -0.715756 -1.84324 -4.72423
upperback -0.988312 -2.44034 2.41662
thorax -0.313825 -1.1923 5.13238
lowerneck -22.771 0.35621 -9.58002
upperneck 21.8667 2.6252 4.69845
head 10.6025 0.979403 3.68965
rclavicle -3.65888e-014 2.06736e-014
rhumerus -32.6076 -0.866251 -81.036
rradius 31.7591
rwrist 19.3742
rhand -18.0411 8.15287
rfingers 7.12502
rthumb 8.23067 -21.6668
lclavicle -3.65888e-014 2.06736e-014
lhumerus 27.5182 -15.7323 56.9359
lradius 105.72
lwrist -7.12547
lhand -39.6959 28.6876
lfingers 7.12502
lthumb -12.6746 58.283
rfemur -8.73784 9.25042 14.9416
rtibia 25.7158
rfoot -16.7136 -3.68355
rtoes 4.42147
lfemur 0.748941 -2.34782 -21.9106
ltibia 11.368
lfoot -10.3585 6.61371
ltoes -12.5693
119
root -0.112132 17.9829 -0.752014 2.83452 -10.5072 1.49723
lowerback -0.671021 -1.85877 -4.7178
upperback -1.02641 -2.46322 2.43947
thorax -0.374644 -1.20115 5.15472
lowerneck -22.6667 0.355169 -9.47359
upperneck 21.2557 2.59403 4.61953
head 10.3654 0.983329 3.61733
rclavicle 1.8077e-014 -2.38542e-015
rhumerus -32.7148 -0.633776 -81.0772
rradius 31.9396
rwrist 19.2144
rhand -17.943 7.89217
rfingers 7.12502
rthumb 8.32538 -21.9238
lclavicle 1.8077e-014 -2.38542e-015
lhumerus 28.0496 -15.255 56.6779
lradius 105.719
lwrist -7.1905
lhand -39.6308 28.5578
lfingers 7.12502
lthumb -12.6119 58.1571
rfemur -8.74291 9.21927 14.9319
rtibia 25.6774
rfoot -16.6931 -3.71934
rtoes 4.41095
lfemur 0.684585 -2.41624 -21.9258
ltibia 11.4639
lfoot -10.4091 6.65875
ltoes -12.7675
120
root -0.112086 17.9819 -0.747058 2.86419 -10.4935 1.50308
lowerback -0.615539 -1.87674 -4.72131
upperback -1.09061 -2.48994 2.47166
thorax -0.467122 -1.21033 5.19346
lowerneck -22.6987 0.35818 -9.51539
upperneck 20.8623 2.59566 4.69672
head 10.2261 1.00313 3.64063
rclavicle 1.74806e-014 -1.59028e-014
rhumerus -32.776 -0.459374 -81.0661
rradius 31.9553
rwrist 19.1382
rhand -17.9246 7.76359
rfingers 7.12502
rthumb 8.34309 -22.0516
lclavicle 1.74806e-014 -1.59028e-014
lhumerus 28.5411 -14.7788 56.4492
lradius 105.701
lwrist -7.19786
lhand -39.652 28.5104
lfingers 7.12502
lthumb -12.6323 58.1085
rfemur -8.74576 9.16681 14.9164
rtibia 25.6531
rfoot -16.6596 -3.71005
rtoes 4.47297
lfemur 0.642618 -2.41801 -21.9365
ltibia 11.5314
lfoot -10.4774 6.64049
ltoes -13.0865
121
root -0.111425 17.9812 -0.744483 2.89631 -10.4958 1.4764
lowerback -0.571012 -1.8843 -4.67099
upperback -1.1033 -2.50195 2.48459
thorax -0.505168 -1.21525 5.18019
lowerneck -22.9288 0.386754 -9.55606
upperneck 20.5561 2.6428 4.81962
head 10.15 1.04776 3.69324
rclavicle 4.3509e-014 -9.54166e-015
rhumerus -32.6638 -0.516493 -81.0404
rradius 31.8189
rwrist 19.2405
rhand -17.8745 7.81377
rfingers 7.12502
rthumb 8.39145 -21.9995
lclavicle 4.3509e-014 -9.54166e-015
lhumerus 29.1387 -14.302 56.1381
lradius 105.651
lwrist -7.28618
lhand -39.6599 28.6906
lfingers 7.12502
lthumb -12.6399 58.2882
rfemur -8.76176 9.17669 14.9402
rtibia 25.6478
rfoot -16.6451 -3.71383
rtoes 4.6114
lfemur 0.598091 -2.38036 -21.9003
ltibia 11.5672
lfoot -10.5155 6.62518
ltoes -12.7244
122
root -0.111303 17.9819 -0.742464 2.95968 -10.4936 1.49015
lowerback -0.646458 -1.87053 -4.67049
upperback -1.0774 -2.48034 2.47727
thorax -0.439158 -1.20693 5.16914
lowerneck -23.1268 0.40119 -9.53443
upperneck 20.0903 2.65463 4.9056
head 10.0152 1.08113 3.71157
rclavicle -8.28684e-015 1.59028e-014
rhumerus -32.5253 -0.666005 -80.9869
rradius 31.7346
rwrist 19.3305
rhand -17.7422 7.96453
rfingers 7.12502
rthumb 8.51917 -21.8436
lclavicle -8.28684e-015 1.59028e-014
lhumerus 29.8287 -13.9022 55.8119
lradius 105.644
lwrist -7.51176
lhand -39.7644 28.9879
lfingers 7.12502
lthumb -12.7407 58.5792
rfemur -8.8193 9.20987 14.9172
rtibia 25.6542
rfoot -16.6871 -3.72039
rtoes 4.87316
lfemur 0.50687 -2.39398 -21.914
ltibia 11.5873
lfoot -10.4902 6.65796
ltoes -12.6037
123
root -0.110327 17.9807 -0.739773 2.94415 -10.4603 1.5005
lowerback -0.617979 -1.85741 -4.64284
upperback -1.05259 -2.46384 2.46095
thorax -0.433399 -1.19956 5.13711
lowerneck -23.2796 0.39741 -9.55722
upperneck 19.5699 2.6388 5.04752
head 9.85395 1.10631 3.75072
rclavicle -3.18428e-014 9.54166e-015
rhumerus -32.4629 -0.838229 -80.9471
rradius 31.6874
rwrist 19.4189
rhand -17.676 8.13862
rfingers 7.12502
rthumb 8.58306 -21.6669
lclavicle -3.18428e-014 9.54166e-015
lhumerus 30.4194 -13.523 55.4999
lradius 105.665
lwrist -7.8694
lhand -39.9624 29.2082
lfingers 7.12502
lthumb -12.9315 58.7875
rfemur -8.79222 9.18503 14.9074
rtibia 25.6707
rfoot -16.7203 -3.7126
rtoes 4.73265
lfemur 0.525579 -2.39594 -21.9309
ltibia 11.5953
lfoot -10.4795 6.62919
ltoes -12.76
124
root -0.110265 17.9798 -0.736451 2.92926 -10.4611 1.51122
lowerback -0.598062 -1.82807 -4.63138
upperback -1.03867 -2.42537 2.44492
thorax -0.4361 -1.18058 5.11479
lowerneck -23.3121 0.351698 -9.68406
upperneck 19.1084 2.57082 5.2677
head 9.695 1.10626 3.82689
rclavicle -1.80397e-014 1.59028e-014
rhumerus -32.4946 -1.07178 -80.8935
rradius 31.7014
rwrist 19.597
rhand -17.6573 8.18568
rfingers 7.12502
rthumb 8.60104 -21.6191
lclavicle -1.80397e-014 1.59028e-014
lhumerus 31.004 -13.1407 55.1903
lradius 105.673
lwrist -8.07721
lhand -40.0828 29.3091
lfingers 7.12502
lthumb -13.0476 58.8811
rfemur -8.7758 9.19197 14.8989
rtibia 25.6919
rfoot -16.7581 -3.6944
rtoes 4.63108
lfemur 0.565155 -2.30554 -21.9372
ltibia 11.5819
lfoot -10.4846 6.53068
ltoes -12.9145
